<svg id="SvgjsSvg1001" width="288" height="288" xmlns="http://www.w3.org/2000/svg" version="1.1"
    xmlns:xlink="http://www.w3.org/1999/xlink" xmlns:svgjs="http://svgjs.com/svgjs">
    <defs id="SvgjsDefs1002"></defs>
    <g id="SvgjsG1008">
        <svg xmlns="http://www.w3.org/2000/svg" data-name="Capa 2" viewBox="0 0 1760.38 1735.01"
            width="288" height="288">
            <path
                d="M2145.09,1145.26c-58.36-414.26-431.52-737.18-869-737.18-486.38,0-880.66,394.28-880.66,880.66,0,256.12,108,478.06,269.7,634.2,187.66,181.19,453.07,258.69,707.65,201.78,193-43.14,409.46-169.21,510.56-499.32,0,0,88.53-268.83-53.34-544,0,0,64.5-184.43-90.22-359.07,0,0-56.68-55.15-61.28-91.91,0,0-44.64,27.67-40.47,78,2.23,27-2.44,54-14.5,78.27-18.81,37.8-47,82.55-72.69,77.1-58.62-12.41-149.11-34.21-243.06-30.13-104.07,4.52-113.36,41.87-188.43,64.85-71.44,21.87-162.28,50.67-170.9,53.41,3,.67,12.82,4.93,13.12,31.86.51,46.47-113.44,44.67-78.12,32.67s10.72-18.71,10.72-18.71c-23.29-3.39-54.35,41.16-57.38,45.6,0,.45-.07.7-.07.7-7.45,30-11.89,57-13.92,81.25,2.52,32.82,25.29,91.67,159.62,128.62,0,0-145.89-24.12-160.93-95.86.87,128.83,76.91,168.17,108.55,179,13.9,4.75,27.68,9.83,41.27,15.41,77.42,31.8,102.1,33.8,146.11,62.28,110.65,71.58,117,233.19,17,319-90.73,77.78-206,37.35-286-9.56-64.22-37.66-117.08-91.83-154.17-156.37A719.68,719.68,0,0,1,598.48,1208c0-399.32,323.71-723,723-723,0,0,288.87-26.94,538.39,241.74,342.08,368.35,302,947.88-82.52,1271.63a1155.75,1155.75,0,0,1-95.77,72.33S2239.15,1813.07,2145.09,1145.26Zm-638.4,52c-33.41,11.41-107.83,25.5-152-53.19a16.42,16.42,0,0,1,8.67-23.4c33.23-12.26,108.29-28.31,152.56,53.2A16.46,16.46,0,0,1,1506.69,1197.21Zm-75.92-245.45c32.46-15.54,102.57-36.69,154,35.89a18.09,18.09,0,0,1-7.34,27c-32.64,14.7-102.43,34.12-153.54-35.86A18.11,18.11,0,0,1,1430.77,951.76Zm-253.94,67.71a22.84,22.84,0,0,1,7.27-33.77c44.87-24.64,151.65-65.31,233.33,45.57a22.83,22.83,0,0,1-7.88,33.77C1364.33,1088.5,1257.87,1126.37,1176.83,1019.47Z"
                transform="translate(-395.4 -408.08)" fill="#a64aee" class="color000 svgShape"></path>
            <path
                d="M1446.66,832.87c32.55,5.24,62.41,11.66,88.18,17.21,5.51,1.21,10.82,2.35,15.89,3.42,15.64,3.31,39.53-23.92,63.87-72.84a135.41,135.41,0,0,0,12-36.65q-12.27-16.82-27.07-33.61s-56.68-55.15-61.28-91.91c0,0-44.64,27.67-40.47,78,2.23,27-2.44,54-14.5,78.27C1473.16,795.08,1460.34,817.41,1446.66,832.87Z"
                transform="translate(-395.4 -408.08)" fill="#a64aee" class="color000 svgShape"></path>
        </svg>
    </g>
</svg>